<?xml version="1.0" encoding="UTF-8" standalone="no"?>
<!-- Created with Inkscape (http://www.inkscape.org/) -->
<svg width="187.08382mm" height="287.92706mm" viewBox="0 0 187.08382 287.92706" version="1.1" id="svg1200" inkscape:version="1.2.1 (9c6d41e410, 2022-07-14, custom)" sodipodi:docname="logo-wizards-nik-ta-race.svg" xmlns:inkscape="http://www.inkscape.org/namespaces/inkscape" xmlns:sodipodi="http://sodipodi.sourceforge.net/DTD/sodipodi-0.dtd" xmlns="http://www.w3.org/2000/svg" xmlns:svg="http://www.w3.org/2000/svg">
  <sodipodi:namedview id="namedview1202" pagecolor="#ffffff" bordercolor="#666666" borderopacity="1.0" inkscape:showpageshadow="2" inkscape:pageopacity="0.0" inkscape:pagecheckerboard="0" inkscape:deskcolor="#d1d1d1" inkscape:document-units="mm" showgrid="false" inkscape:zoom="0.33206871" inkscape:cx="861.26753" inkscape:cy="945.58743" inkscape:window-width="1920" inkscape:window-height="1062" inkscape:window-x="0" inkscape:window-y="18" inkscape:window-maximized="1" inkscape:current-layer="layer1"/>
  <defs id="defs1197"/>
  <g inkscape:label="Calque 1" inkscape:groupmode="layer" id="layer1">
    <path d="m 71.525463,269.84799 c 0,-0.0404 0.248153,-0.73711 0.551452,-1.5482 1.539225,-4.11629 1.335252,-8.79171 -0.550701,-12.6226 -0.687894,-1.39732 -3.10331,-4.71546 -3.429314,-4.71099 -0.08823,0.003 -1.291594,1.25092 -2.674133,2.77708 -1.382529,1.52617 -2.618472,2.7101 -2.746539,2.63096 -0.353316,-0.21838 -1.22341,-2.31985 -1.712756,-4.13672 -0.611481,-2.2704 -0.610374,-11.23823 0.0018,-15.16639 0.557863,-3.5791 0.753139,-9.88547 0.378165,-12.21284 -0.680923,-4.22638 -2.62907,-8.40723 -5.374529,-11.53414 l -0.709534,-0.8081 -0.782893,0.59714 c -1.82233,1.38996 -5.426543,2.6382 -8.625558,2.98728 -1.17731,0.12846 -1.451195,0.0994 -1.347359,-0.14314 0.0717,-0.16741 0.612049,-1.36437 1.200817,-2.65994 1.472704,-3.24058 1.59095,-4.24512 1.439863,-12.23196 -0.127386,-6.73412 -0.338337,-9.20561 -1.446091,-16.94262 -0.313051,-2.18677 -0.569212,-4.64136 -0.569212,-5.45465 0,-2.70815 1.397855,-12.78458 2.215892,-15.97324 1.337258,-5.21253 5.277584,-10.65094 9.359123,-12.91737 0.802694,-0.44572 1.681449,-1.01881 1.952788,-1.27351 0.575108,-0.53986 2.628347,-7.44819 2.302928,-7.74843 -0.110683,-0.10213 -1.086924,-0.30969 -2.169408,-0.46127 -12.417006,-1.7387 -25.087851,-5.25175 -32.708627,-9.06861 -6.950766,-3.48128 -10.291447,-6.84056 -11.164489,-11.22669 l -0.143158,-0.71924 5.857674,-0.1344 c 5.108293,-0.11724 6.168692,-0.20729 8.288913,-0.704 5.223129,-1.22362 11.743652,-3.72573 20.723546,-7.95221 l 4.862504,-2.28858 1.783802,-3.46617 c 0.98109,-1.90642 1.822286,-3.5672 1.869328,-3.69065 0.05399,-0.14186 2.039047,-0.0776 5.394173,0.17455 2.919774,0.21946 8.111274,0.61058 11.536697,0.86915 3.425414,0.25857 6.330045,0.43612 6.454737,0.39455 0.124691,-0.0416 -4.316521,-1.99881 -9.869379,-4.349438 -5.552848,-2.35064 -10.098577,-4.36266 -10.101613,-4.47118 -0.0026,-0.10852 0.81795,-2.24455 1.824441,-4.746742 1.006483,-2.50218 3.713492,-9.569924 6.015564,-15.706089 5.295964,-14.116345 6.132685,-16.211296 8.388265,-21.002255 1.012476,-2.150533 1.811671,-3.939202 1.776012,-3.974817 -0.76399,-0.762917 -17.283277,-5.210856 -30.513407,-8.215938 -2.355997,-0.535141 -4.378741,-1.060931 -4.494989,-1.168394 -0.28246,-0.261168 1.174997,-2.107285 2.673382,-3.386285 5.159514,-4.40408 15.946909,-9.774021 27.291889,-13.585844 7.21133,-2.422943 12.24781,-3.576867 16.427841,-3.76383 2.29267,-0.102553 2.790581,-0.05923 3.484671,0.30315 2.22975,1.164138 6.491329,9.204618 12.435209,23.461826 2.01479,4.832768 8.90793,22.135915 9.2075,23.112663 0.12035,0.392401 -0.31378,1.720126 -1.61434,4.937241 -0.97841,2.420283 -1.73244,4.447013 -1.67558,4.503868 0.0569,0.05687 1.13351,-1.096885 2.39257,-2.563877 1.25907,-1.466983 2.34513,-2.667233 2.41347,-2.667233 0.0683,0 1.67065,4.037611 3.56069,8.972479 1.89004,4.934863 5.26709,13.674587 7.50456,19.421577 l 4.06812,10.449088 1.51987,0.75269 c 7.19162,3.56146 16.15474,7.30357 20.73834,8.65826 5.18083,1.53121 6.78504,1.76027 12.32801,1.76027 h 4.98329 l -0.12914,0.96278 c -0.071,0.52954 -0.50217,1.71758 -0.9581,2.64008 -3.12518,6.32335 -15.32841,12.09707 -33.45,15.82619 l -3.25135,0.66906 -3.85161,-1.72821 c -2.11839,-0.95051 -3.88306,-1.69546 -3.92149,-1.65545 -0.0383,0.04 0.0288,1.04953 0.14933,2.24335 0.12053,1.19383 0.18869,2.20038 0.15146,2.23679 -0.0372,0.0364 -1.25656,0.23113 -2.7096,0.43271 -1.45305,0.20158 -2.68863,0.41327 -2.74577,0.4704 -0.14581,0.14581 1.76713,6.64456 2.0596,6.99697 0.1319,0.15892 0.83048,0.62058 1.55239,1.02591 5.69762,3.19901 9.3437,8.88624 10.67732,16.65466 0.81648,4.75613 0.81902,5.94489 0.0277,12.93607 -0.79463,7.01983 -1.13349,8.92842 -2.10455,11.85339 -1.21336,3.65517 -1.71146,6.86214 -1.68878,10.87411 0.0296,5.23966 0.60166,7.36698 2.38435,8.86701 0.6447,0.54249 0.66361,0.59897 0.24495,0.73186 -1.01414,0.32186 -4.28611,0.19093 -5.18526,-0.20751 -0.49134,-0.21773 -0.94177,-0.34744 -1.00096,-0.28825 -0.0592,0.0592 0.004,0.50816 0.13952,0.99766 0.13591,0.4895 0.2477,1.63862 0.24842,2.55359 0.003,2.94081 -0.82395,5.88275 -3.02825,10.78256 -0.74056,1.64618 -1.47254,3.88181 -2.16065,6.59913 -1.59544,6.3004 -2.13639,8.00648 -3.22666,10.1762 l -1.00529,2.00064 -0.52467,-2.12339 c -0.28858,-1.16786 -0.59116,-2.11918 -0.67242,-2.11405 -0.0813,0.006 -1.032,1.38574 -2.11276,3.06801 -4.16821,6.48809 -8.58766,11.68047 -11.73458,13.7869 -2.73927,1.83356 -14.51103,7.26986 -20.806057,9.60843 -3.889936,1.44507 -12.151267,3.99948 -12.151267,3.75716 z m 8.567272,-102.04206 c 3.305067,-0.45706 4.804629,-0.52884 11.114302,-0.53204 5.502094,-0.003 8.004744,0.0908 10.188103,0.38116 1.5919,0.21169 3.91913,0.51801 5.17163,0.68072 l 2.27729,0.29584 0.42089,-0.558 c 0.49954,-0.66227 1.53736,-3.9505 1.86472,-5.90823 0.64051,-3.83029 0.49626,-10.26059 -0.36357,-16.20837 -0.5999,-4.14977 -0.49353,-3.85436 -1.33669,-3.71189 -0.40728,0.0688 -4.17898,0.22274 -8.38159,0.34203 -7.767246,0.2205 -18.015021,0.035 -24.88777,-0.45042 -2.69477,-0.19035 -3.593876,-0.18556 -3.720801,0.0198 -0.09204,0.14894 -0.241359,0.80449 -0.331821,1.45678 -0.09045,0.65227 -0.315677,2.22793 -0.500494,3.50144 -0.546515,3.76586 -0.666436,12.04345 -0.214363,14.79626 0.424371,2.58403 1.362442,5.59542 1.944685,6.24282 0.449728,0.50004 0.726919,0.48576 6.755479,-0.3479 z m -3.1231,-5.81423 c 0.17831,-2.04236 0.444782,-2.77114 1.306598,-3.57357 0.958237,-0.89218 1.671435,-0.9995 6.642555,-0.9995 5.409921,0 5.61488,-0.0549 6.086572,-1.62921 l 0.274984,-0.91781 h 1.674192 1.674185 l 0.14608,0.77862 c 0.29666,1.58141 0.50538,1.63932 6.373069,1.7684 l 5.26289,0.11578 0.81705,0.62369 c 1.08318,0.82683 1.4895,1.78518 1.67442,3.94938 l 0.15332,1.7945 h -1.86205 -1.86204 v -0.66899 c 0,-0.36796 -0.19903,-0.91498 -0.44228,-1.21564 -0.427,-0.52772 -0.61058,-0.55478 -5.305989,-0.78242 -5.2983,-0.25685 -5.35211,-0.27226 -6.29542,-1.80225 l -0.399982,-0.64878 -0.476767,0.80806 c -0.780879,1.3235 -1.292538,1.45678 -6.298038,1.64056 -4.123853,0.15142 -4.56034,0.20754 -5.036173,0.64756 -0.286534,0.26498 -0.520976,0.66349 -0.520976,0.88558 0,1.01563 -0.214213,1.13632 -2.017039,1.13632 h -1.735931 z" style="fill:#ffffff;fill-opacity:1;stroke:#ffffff;stroke-width:17.4035;stroke-linecap:butt;stroke-linejoin:round;stroke-dasharray:none;stroke-opacity:1" id="path6095-5-3-9" inkscape:export-filename="../cbonla.png" inkscape:export-xdpi="38.76" inkscape:export-ydpi="38.76"/>
    <path d="m 71.525489,269.84799 c 0,-0.0404 0.248163,-0.73711 0.55147,-1.5482 1.539225,-4.11629 1.335243,-8.79171 -0.550711,-12.6226 -0.687893,-1.39732 -3.103309,-4.71546 -3.429313,-4.71099 -0.08823,0.003 -1.291603,1.25092 -2.674133,2.77708 -1.382529,1.52617 -2.618464,2.7101 -2.74654,2.63096 -0.353314,-0.21838 -1.223408,-2.31985 -1.712746,-4.13672 -0.611499,-2.2704 -0.610383,-11.23823 0.0018,-15.16639 0.557863,-3.5791 0.753139,-9.88547 0.378166,-12.21284 -0.680932,-4.22638 -2.62907,-8.40723 -5.374538,-11.53414 l -0.709517,-0.8081 -0.782901,0.59714 c -1.822321,1.38996 -5.426552,2.6382 -8.625559,2.98728 -1.177309,0.12846 -1.451195,0.0994 -1.347358,-0.14314 0.0717,-0.16741 0.612048,-1.36437 1.200817,-2.65994 1.472704,-3.24058 1.59095,-4.24512 1.439863,-12.23196 -0.127387,-6.73412 -0.338338,-9.20561 -1.446092,-16.94262 -0.313051,-2.18677 -0.56922,-4.64136 -0.56922,-5.45465 0,-2.70815 1.397864,-12.78458 2.215901,-15.97324 1.337258,-5.21253 5.277584,-10.65094 9.359123,-12.91737 0.802694,-0.44572 1.681458,-1.01881 1.952788,-1.27351 0.575108,-0.53986 2.628347,-7.44819 2.302928,-7.74843 -0.110693,-0.10213 -1.086916,-0.30969 -2.169409,-0.46127 -12.417014,-1.7387 -25.087842,-5.25175 -32.708636,-9.06861 -6.950764,-3.48128 -10.291437,-6.84056 -11.164488,-11.22669 l -0.143158,-0.71924 5.857674,-0.1344 c 5.108302,-0.11724 6.168701,-0.20729 8.288921,-0.704 5.223138,-1.22362 11.743653,-3.72573 20.723538,-7.95221 l 4.862521,-2.28858 1.783802,-3.46617 c 0.981091,-1.90642 1.822277,-3.5672 1.869311,-3.69065 0.05408,-0.14186 2.039056,-0.0776 5.394181,0.17455 2.919766,0.21946 8.111283,0.61058 11.536697,0.86915 3.425423,0.25857 6.330037,0.43612 6.454728,0.39455 0.124701,-0.0416 -4.316512,-1.99881 -9.86936,-4.349438 -5.552849,-2.35064 -10.098577,-4.36266 -10.10163,-4.47118 -0.0026,-0.10852 0.817966,-2.24455 1.824449,-4.746742 1.006474,-2.50218 3.713491,-9.569924 6.015564,-15.706089 5.295964,-14.116345 6.132685,-16.211296 8.388264,-21.002255 1.012476,-2.150533 1.811672,-3.939202 1.776013,-3.974817 C 78.814718,47.468602 62.295431,43.020663 49.0653,40.015581 46.709294,39.48044 44.68655,38.95465 44.570311,38.847187 c -0.282468,-0.261168 1.174989,-2.107285 2.673382,-3.386285 5.159505,-4.40408 15.9469,-9.774021 27.29188,-13.585844 7.211322,-2.422943 12.247801,-3.576867 16.427833,-3.76383 2.29267,-0.102553 2.790582,-0.05923 3.484675,0.30315 2.22974,1.164138 6.491349,9.204618 12.435209,23.461826 2.0148,4.832768 8.90793,22.135915 9.2075,23.112663 0.12035,0.392401 -0.31377,1.720126 -1.61433,4.937241 -0.97843,2.420283 -1.73244,4.447013 -1.67559,4.503868 0.0569,0.05687 1.13351,-1.096885 2.39258,-2.563877 1.25906,-1.466983 2.34512,-2.667233 2.41346,-2.667233 0.0683,0 1.67066,4.037611 3.56069,8.972479 1.89004,4.934863 5.26709,13.674587 7.50456,19.421577 l 4.06813,10.449088 1.51986,0.75269 c 7.19163,3.56146 16.15474,7.30357 20.73835,8.65826 5.18082,1.53121 6.78502,1.76027 12.32801,1.76027 h 4.98328 l -0.12913,0.96278 c -0.071,0.52954 -0.50218,1.71758 -0.95811,2.64008 -3.12518,6.32335 -15.3284,12.09707 -33.44998,15.82619 l -3.25136,0.66906 -3.85162,-1.72821 c -2.11838,-0.95051 -3.88305,-1.69546 -3.92148,-1.65545 -0.0383,0.04 0.0288,1.04953 0.14932,2.24335 0.12055,1.19383 0.18871,2.20038 0.15146,2.23679 -0.0372,0.0364 -1.25655,0.23113 -2.7096,0.43271 -1.45304,0.20158 -2.68862,0.41327 -2.74575,0.4704 -0.14583,0.14581 1.76712,6.64456 2.05959,6.99697 0.13189,0.15892 0.83048,0.62058 1.55239,1.02591 5.69762,3.19901 9.34369,8.88624 10.67731,16.65466 0.81649,4.75613 0.81902,5.94489 0.0277,12.93607 -0.79463,7.01983 -1.1335,8.92842 -2.10455,11.85339 -1.21338,3.65517 -1.71146,6.86214 -1.68878,10.87411 0.0296,5.23966 0.60166,7.36698 2.38436,8.86701 0.64469,0.54249 0.66361,0.59897 0.24493,0.73186 -1.01413,0.32186 -4.28611,0.19093 -5.18525,-0.20751 -0.49133,-0.21773 -0.94177,-0.34744 -1.00096,-0.28825 -0.0592,0.0592 0.004,0.50816 0.13951,0.99766 0.13593,0.4895 0.24771,1.63862 0.24843,2.55359 0.003,2.94081 -0.82396,5.88275 -3.02825,10.78256 -0.74057,1.64618 -1.47254,3.88181 -2.16065,6.59913 -1.59544,6.3004 -2.13639,8.00648 -3.22666,10.1762 l -1.0053,2.00064 -0.52467,-2.12339 c -0.28856,-1.16786 -0.59115,-2.11918 -0.67243,-2.11405 -0.0813,0.006 -1.03199,1.38574 -2.11274,3.06801 -4.16821,6.48809 -8.58767,11.68047 -11.73459,13.7869 -2.73927,1.83356 -14.511025,7.26986 -20.806062,9.60843 -3.889926,1.44507 -12.151266,3.99948 -12.151266,3.75716 z m 8.567282,-102.04206 c 3.305057,-0.45706 4.804619,-0.52884 11.114293,-0.53204 5.502097,-0.003 8.004747,0.0908 10.188116,0.38116 1.59189,0.21169 3.91912,0.51801 5.17161,0.68072 l 2.27729,0.29584 0.42089,-0.558 c 0.49955,-0.66227 1.53737,-3.9505 1.86473,-5.90823 0.6405,-3.83029 0.49627,-10.26059 -0.36357,-16.20837 -0.59991,-4.14977 -0.49353,-3.85436 -1.33669,-3.71189 -0.40728,0.0688 -4.17898,0.22274 -8.38158,0.34203 -7.767251,0.2205 -18.015035,0.035 -24.887775,-0.45042 -2.694771,-0.19035 -3.593885,-0.18556 -3.720793,0.0198 -0.09205,0.14894 -0.241366,0.80449 -0.331821,1.45678 -0.09045,0.65227 -0.315676,2.22793 -0.500503,3.50144 -0.546515,3.76586 -0.666435,12.04345 -0.214353,14.79626 0.424371,2.58403 1.362433,5.59542 1.944676,6.24282 0.449728,0.50004 0.726911,0.48576 6.75548,-0.3479 z M 76.96967,161.9917 c 0.178319,-2.04236 0.44479,-2.77114 1.306606,-3.57357 0.958237,-0.89218 1.671427,-0.9995 6.642538,-0.9995 5.409921,0 5.614889,-0.0549 6.086572,-1.62921 l 0.274984,-0.91781 h 1.674192 1.674189 l 0.14608,0.77862 c 0.29667,1.58141 0.50538,1.63932 6.373079,1.7684 l 5.26287,0.11578 0.81706,0.62369 c 1.08318,0.82683 1.48949,1.78518 1.67441,3.94938 l 0.15333,1.7945 h -1.86206 -1.86203 v -0.66899 c 0,-0.36796 -0.19903,-0.91498 -0.44228,-1.21564 -0.427,-0.52772 -0.61058,-0.55478 -5.305989,-0.78242 -5.29829,-0.25685 -5.35211,-0.27226 -6.295416,-1.80225 l -0.39999,-0.64878 -0.476768,0.80806 c -0.780868,1.3235 -1.292537,1.45678 -6.298037,1.64056 -4.123853,0.15142 -4.560339,0.20754 -5.036174,0.64756 -0.286533,0.26498 -0.520974,0.66349 -0.520974,0.88558 0,1.01563 -0.214196,1.13632 -2.017031,1.13632 h -1.735932 z" style="fill:#182f3e;fill-opacity:1;stroke-width:0.231548" id="path6095-5-4"/>
  </g>
</svg>